<svg width="265" height="152" viewBox="0 0 265 152" fill="none" xmlns="http://www.w3.org/2000/svg">
<path d="M0 0H83.9154C85.02 0 85.9154 0.895431 85.9154 2V38.8144C85.9154 39.919 85.02 40.8144 83.9154 40.8144H0V0Z" fill="#061446"/>
<path d="M0 95.9131H83.9154C85.02 95.9131 85.9154 96.8085 85.9154 97.9131V134.728C85.9154 135.832 85.02 136.728 83.9154 136.728H0V95.9131Z" fill="#061446"/>
<rect y="136.728" width="136.728" height="35.0675" transform="rotate(-90 0 136.728)" fill="#061446"/>
<rect x="90.2334" y="136.728" width="136.728" height="35.0675" transform="rotate(-90 90.2334 136.728)" fill="#061446"/>
<path d="M139.766 136.728L119.162 78.6786L151.631 63.2619L177.026 136.728L139.766 136.728Z" fill="#061446"/>
<path d="M113.027 81.6284V-0.000434875H170.642C171.747 -0.000434875 172.642 0.894996 172.642 1.99957V79.6284C172.642 80.733 171.747 81.6284 170.642 81.6284H113.027Z" fill="#061446"/>
<rect x="177.902" y="136.728" width="136.728" height="35.0675" transform="rotate(-90 177.902 136.728)" fill="#061446"/>
<path d="M227.435 136.728L206.831 78.6786L239.3 63.2619L264.695 136.728L227.435 136.728Z" fill="#061446"/>
<path d="M200.696 81.6284V-0.000434875H258.311C259.416 -0.000434875 260.311 0.894996 260.311 1.99957V79.6284C260.311 80.733 259.416 81.6284 258.311 81.6284H200.696Z" fill="#061446"/>
<rect x="134.221" y="30.3999" width="79.7786" height="24.4887" fill="white"/>
</svg>
